<svg xmlns="http://www.w3.org/2000/svg" xmlns:xlink="http://www.w3.org/1999/xlink" id="Layer_1" x="0" y="0" version="1.1" viewBox="0 0 512 512" xml:space="preserve" style="enable-background:new 0 0 512 512"><circle style="fill:#3a99d7" cx="255.997" cy="256" r="255.997"/><path style="fill:#2682bf" d="M510.165,225.557c1.204,9.976,1.835,20.124,1.835,30.445c0,134.45-103.662,244.705-235.474,255.197	L41.166,275.84l286.502-11.467l119.199-102.056l63.24,63.24L510.165,225.557L510.165,225.557z"/><path style="fill:#13659c" d="M339.594,205.491c0,0-24.138,25.915-42.829,19.551c-18.691-6.364-45.352-26.718-56.762-24.023	c-7.109,2.752-10.033,7.454-10.033,7.454s-9.403-4.472-20.412-2.466c-11.009,2.006-18.404,6.364-24.081,4.702	c-5.676-1.663-9.002-2.35-9.002-2.35l-2.35-5.676L145.4,194.77v104.176l7.855-5.446l4.358,1.605l5.791,3.096	c0,0-6.364,17.028,0.688,23.392c6.995,6.364,17.373,4.013,17.373,4.013s-1.319,4.53,6.995,8.886	c8.371,4.358,13.359,1.663,13.359,1.663s-0.86,5.16,9.002,8.886c9.862,3.669,12.385-0.344,12.385-0.344s0.516,4.702,9.862,6.708	c9.346,2.006,10.205-3.153,10.205-3.153s6.02,5.332,11.696,4.816c5.676-0.516,10.722-4.53,12.212-9.862s3.497-8.027,3.497-8.027	l16.799,8.543c0,0,7.511,0.975,13.473-5.849c5.963-6.823,2.982-11.18,2.982-11.18s6.995,2.982,12.557-2.006	c5.504-4.988,5.16-11.524,5.16-11.524s5.849-3.325,8.371-5.16s4.358-10.837,4.358-10.837l24.94-4.759l46.269-4.587l-29.357-95.634	l-36.695,13.416L339.594,205.491z"/><g><path style="fill:#ffc964" d="M176.649,277.216c0,0-12.385,29.241-12.04,35.261s11.753,6.364,14.563,6.02 c2.867-0.344,14.162-35.949,14.162-35.949S189.492,271.368,176.649,277.216z M355.992,288.683c0,0-17.717,3.669-21.042,2.867 c-3.325-0.745-48.391-34.687-48.391-34.687l-39.16-25.169l-33.427,30.502c-7.166,2.695-18.691-3.325-19.551-11.18 c2.006-6.192,41.109-41.625,41.109-41.625s4.988-4.988,13.531-2.178c8.543,2.867,44.951,23.048,46.614,24.081 c1.663,1.033,13.703-0.975,21.386-5.504c7.683-4.53,15.825-8.543,15.825-8.543L355.992,288.683z M265.345,335.068 c-2.178,9.69-4.816,12.958-11.18,12.385c-6.364-0.573-8.715-5.103-7.683-7.74l4.931-12.9 C254.165,321.823,267.123,330.309,265.345,335.068z M235.703,304.049c0,0-9.117,31.936-9.976,35.72 c-0.86,3.726,10.435,9.289,13.99,6.593l10.722-32.738c0,0-1.032-4.587-3.669-7.281c-2.695-2.695-9.002-3.669-11.009-2.236 L235.703,304.049z M217.127,295.506c0,0-11.696,34.916-11.696,37.955c0,2.982,9.174,7.339,12.728,6.995 c3.497-0.344,12.213-38.127,12.213-38.127s-0.516-6.593-5.676-7.912s-5.849-1.949-7.511,1.09L217.127,295.506L217.127,295.506z M198.207,284.899c0,0-15.365,34.172-14.047,37.325c2.121,5.045,10.779,10.205,15.882,6.422c1.835-1.319,11.696-38.07,11.696-38.07 s-0.172-4.53-3.841-6.192C204.227,282.72,198.207,284.899,198.207,284.899z"/><path style="fill:#ffc964" d="M223.147,214.722c0,0-33.254,30.846-33.082,37.841s10.148,12.843,15.481,13.99 s10.091,1.032,13.933-2.466c3.841-3.497,12.097-11.066,12.097-11.066l82.963,54.812c0,0,1.835,4.53,0,8.199 s-4.013,7.166-8.829,5.849c-4.873-1.319-79.867-48.104-79.867-48.104l-3.153,3.669c0,0,75.28,44.779,76.026,47.301 s-1.777,11.008-5.446,12.728c-3.669,1.663-7.855,0.86-7.855,0.86l-31.247-19.207c0,0,1.835-13.703-7.166-17.774 c-9.002-4.07-12.097-1.949-12.097-1.949s-6.02-11.639-12.843-12.728s-6.536,0.573-6.536,0.573s-3.268-7.855-10.091-7.511 c-6.88,0.344-8.027,1.319-8.027,1.319s-6.364-11.868-15.538-9.518c-9.174,2.35-8.886,4.013-11.123,9.46 c-2.236,5.446-4.243,10.091-4.243,10.091l-9.289-1.72l20.526-73.388c0,0,7.855,0.975,16.684,0.229 c8.829-0.745,16.627-6.708,21.042-6.708s11.066,1.491,11.066,1.491L223.147,214.722z M249.177,237.139 c0,0,78.778,53.665,79.695,56.418c0.918,2.752-0.057,6.364-1.605,8.6c-1.491,2.236-6.765,4.988-7.454,5.103 c-0.688,0.057-85.544-58.424-85.544-58.424l14.85-11.696h0.057V237.139z"/></g><path style="fill:#f7f7f8" d="M378.582,185.71l0.229,0.63l28.897,107.732l-49.767,11.639l-29.986-105.324l50.741-14.735	L378.582,185.71z"/><path style="fill:#e84f4f" d="M378.582,185.71l68.4-23.392l23.852,116.963l-63.126,14.792L378.639,185.71L378.582,185.71	L378.582,185.71z"/><path style="fill:#f7f7f8" d="M133.418,182.27l-0.229,0.63l-28.897,107.732l49.767,11.639l29.986-105.324l-50.741-14.735	L133.418,182.27z"/><path style="fill:#e84f4f" d="M133.418,182.27l-68.4-23.392L41.166,275.84l63.126,14.792l29.069-108.363H133.418z"/></svg>