<svg xmlns="http://www.w3.org/2000/svg" xmlns:xlink="http://www.w3.org/1999/xlink" id="Layer_1" x="0" y="0" version="1.1" viewBox="0 0 460 460" xml:space="preserve" style="enable-background:new 0 0 460 460"><g><path style="fill:#ff8c84" d="M230,0C102.974,0,0,102.974,0,230c0,126.031,101.369,228.386,227.021,229.981L444.872,147.79 C411.787,61.366,328.06,0,230,0z"/><path style="fill:#ff7066" d="M460,230c0-28.966-5.37-56.674-15.143-82.203L375,77.94l-280,70l40.197,40.197L85,237.94 l64.53,64.53L60,292.94l167.022,167.022c0.993,0.013,1.982,0.038,2.978,0.038C357.025,460,460,357.025,460,230z"/><polygon style="fill:#aa1106" points="250 422.549 230 422.549 220 110.549 250 110.549"/><rect style="fill:#ff1909" width="20" height="312" x="210" y="110.549"/><polygon style="fill:#ffe1a0" points="375 77.94 375 147.94 230 147.94 210 112.94 230 77.94"/><polygon style="fill:#fff0cf" points="230 77.94 230 147.94 95 147.94 60 112.94 95 77.94"/><polygon style="fill:#ffe1a0" points="375 257.94 375 327.94 230 327.94 210 292.94 230 257.94"/><polygon style="fill:#fff0cf" points="230 257.94 230 327.94 95 327.94 60 292.94 95 257.94"/><polygon style="fill:#fff0cf" points="355 277.94 355 307.94 230 307.94 210 292.94 230 277.94"/><polygon style="fill:#fff" points="230 277.94 230 307.94 103.28 307.94 88.28 292.94 103.28 277.94"/><polygon style="fill:#ffe1a0" points="230 167.94 210 202.94 230 237.94 365 237.94 400 202.94 365 167.94"/><rect style="fill:#fff0cf" width="145" height="70" x="85" y="167.94"/><polygon style="fill:#fff0cf" points="355 97.94 355 127.94 230 127.94 210 112.94 230 97.94"/><polygon style="fill:#fff" points="230 97.94 230 127.94 103.28 127.94 88.28 112.94 103.28 97.94"/><polygon style="fill:#fff" points="105 187.94 105 217.94 230 217.94 250 202.94 230 187.94"/><polygon style="fill:#fff0cf" points="230 187.94 230 217.94 356.72 217.94 371.72 202.94 356.72 187.94"/></g></svg>