<?xml version="1.0" encoding="iso-8859-1"?>
<!-- Generator: Adobe Illustrator 19.0.0, SVG Export Plug-In . SVG Version: 6.00 Build 0)  -->
<svg version="1.1" id="Layer_1" xmlns="http://www.w3.org/2000/svg" xmlns:xlink="http://www.w3.org/1999/xlink" x="0px" y="0px"
	 viewBox="0 0 491.52 491.52" style="enable-background:new 0 0 491.52 491.52;" xml:space="preserve">
<rect x="167.501" y="258.918" style="fill:#F6C358;" width="156.518" height="100.511"/>
<polygon style="fill:#E1E6E9;" points="323.859,318.286 245.759,358.306 167.66,318.286 150.148,325.113 241.794,469.681 
	245.76,469.681 249.726,469.681 341.371,325.113 "/>
<polygon style="fill:#64798A;" points="87.656,349.475 211.427,469.681 241.794,469.681 150.148,325.113 "/>
<path style="fill:#3A556A;" d="M68.35,357.002c-21.252,8.847-37.93,26.045-46.12,47.558L0,469.681h211.427L87.656,349.475
	L68.35,357.002z"/>
<polygon style="fill:#EBF0F3;" points="167.66,318.286 241.794,356.213 197.954,400.525 150.148,325.113 "/>
<polygon style="fill:#64798A;" points="403.863,349.475 280.091,469.681 249.726,469.681 341.371,325.113 "/>
<path style="fill:#3A556A;" d="M423.17,357.002c21.252,8.847,37.93,26.045,46.118,47.558l22.231,65.12H280.091l123.771-120.206
	L423.17,357.002z"/>
<polygon style="fill:#EBF0F3;" points="323.859,318.286 249.726,356.213 293.566,400.525 341.371,325.113 "/>
<g>
	
		<ellipse transform="matrix(-0.9437 -0.3308 0.3308 -0.9437 619.6207 482.0863)" style="fill:#F6C358;" cx="350.836" cy="188.313" rx="21.893" ry="35.656"/>
	
		<ellipse transform="matrix(-0.3308 -0.9437 0.9437 -0.3308 9.5106 383.3617)" style="fill:#F6C358;" cx="140.677" cy="188.309" rx="35.656" ry="21.893"/>
</g>
<path style="fill:#FCD462;" d="M349.925,183.027c0,71.855-46.636,151.612-104.165,151.612c-57.529,0-104.165-79.758-104.165-151.612
	S188.231,74.431,245.76,74.431C303.289,74.431,349.925,111.172,349.925,183.027z"/>
<path style="fill:#64798A;" d="M245.75,44.65c-55.001,0-100.412,41.056-107.259,94.194c-1.044,8.104,3.418,15.905,10.92,19.142
	c32.665,14.097,64.129,25.536,92.784,30.76c2.122,0.387,4.292,0.38,6.412-0.012c29.492-5.439,60.867-16.092,93.647-30.633
	c7.417-3.289,11.801-11.032,10.778-19.079C346.263,85.798,300.812,44.65,245.75,44.65z"/>
<path style="fill:#2F4859;" d="M413.877,74.004L246.723,26.028c-0.629-0.181-1.297-0.181-1.928,0L77.643,74.004
	c-3.374,0.968-3.374,5.748,0,6.716l167.152,47.977c0.631,0.18,1.299,0.18,1.928,0L413.877,80.72
	C417.25,79.753,417.25,74.972,413.877,74.004z"/>
<path style="fill:#3A556A;" d="M413.877,69.95L246.723,21.974c-0.629-0.18-1.297-0.18-1.928,0L77.643,69.95
	c-3.374,0.969-3.374,5.749,0,6.718l167.152,47.976c0.631,0.18,1.299,0.18,1.928,0l167.154-47.976
	C417.25,75.699,417.25,70.919,413.877,69.95z"/>
<path style="fill:#E56353;" d="M169.984,173.81c-3.43,0-6.206-2.776-6.206-6.206V103.17c0-2.557,1.57-4.86,3.957-5.782
	l73.918-28.718c3.181-1.249,6.794,0.339,8.029,3.533c1.243,3.194-0.339,6.794-3.533,8.036l-69.962,27.179v60.187
	C176.188,171.034,173.414,173.81,169.984,173.81z"/>
<ellipse style="fill:#2F4859;" cx="245.76" cy="73.308" rx="15.99" ry="10.342"/>
<polygon style="fill:#E56353;" points="192.809,232.861 147.155,232.861 160.18,161.621 179.783,161.621 "/>
<circle style="fill:#D15241;" cx="169.984" cy="157.957" r="16.251"/>
<g>
</g>
<g>
</g>
<g>
</g>
<g>
</g>
<g>
</g>
<g>
</g>
<g>
</g>
<g>
</g>
<g>
</g>
<g>
</g>
<g>
</g>
<g>
</g>
<g>
</g>
<g>
</g>
<g>
</g>
</svg>
